<?xml version="1.0" encoding="utf-8"?>
<!-- Generator: Adobe Illustrator 25.3.1, SVG Export Plug-In . SVG Version: 6.00 Build 0)  -->
<svg version="1.1" id="Layer_1" xmlns="http://www.w3.org/2000/svg" xmlns:xlink="http://www.w3.org/1999/xlink" x="0px" y="0px"
	 viewBox="0 0 183 147" style="enable-background:new 0 0 189 147;opacity:0.2" xml:space="preserve">
<style type="text/css">
	.st0{fill:#DAE0F5;}
	.st1{fill:url(#SVGID_1_);}
	.st2{fill:url(#SVGID_2_);}
	.st3{fill:url(#SVGID_3_);}
	.st4{fill:url(#SVGID_4_);}
	.st5{fill:url(#SVGID_5_);}
	.st6{fill:url(#SVGID_6_);}
	.st7{fill:url(#SVGID_7_);}
	.st8{fill:url(#SVGID_8_);}
	.st9{fill:#F6F6FB;}
	.st10{fill:#CED3F8;}
	.st11{fill:url(#SVGID_9_);}
	.st12{fill:#BBC0E6;}
	.st13{fill:#A5ABCC;}
	.st14{fill:url(#SVGID_10_);}
	.st15{fill:url(#SVGID_11_);}
	.st16{fill:url(#SVGID_12_);}
	.st17{fill:url(#SVGID_13_);}
	.st18{fill:#C2C7E5;}
	.st19{fill:url(#SVGID_14_);}
	.st20{fill:#ADB5DB;}
	.st21{fill:#E8ECF7;}
	.st22{fill:url(#SVGID_15_);}
	.st23{fill:#EC5149;}
	.st24{fill:#F76D6B;}
	.st25{fill:#D13C39;}
	.st26{fill:#B9C0ED;}
	.st27{fill:#E1E1F4;}
	.st28{fill:url(#SVGID_16_);}
	.st29{opacity:0.55;}
	.st30{fill:#F9BBBB;}
	.st31{fill:url(#SVGID_17_);}
	.st32{fill:url(#SVGID_18_);}
	.st33{fill:url(#SVGID_19_);}
	.st34{fill:#FFFFFF;}
	.st35{enable-background:new    ;}
	.st36{clip-path:url(#SVGID_21_);}
	.st37{fill:url(#SVGID_22_);}
	.st38{fill:url(#SVGID_23_);}
	.st39{fill:#EB975A;}
</style>
<g>
	<path class="st0" d="M68.5,70.7c-0.5,0.3-0.8,0.5-1.2,0.7h5.2c0.1-1.1,0.5-2.2,1.1-3.2l0,0C71.7,68.9,70,69.7,68.5,70.7z"/>
	
		<linearGradient id="SVGID_1_" gradientUnits="userSpaceOnUse" x1="73.477" y1="-42.25" x2="99.3379" y2="-42.25" gradientTransform="matrix(1 0 0 -1 0 40)">
		<stop  offset="0" style="stop-color:#CFD5F1"/>
		<stop  offset="0.5891" style="stop-color:#EEF0FA"/>
		<stop  offset="1" style="stop-color:#FFFFFF"/>
	</linearGradient>
	<path class="st1" d="M86.1,74.4V76c-1.8,0.5-3.5,1.3-4.9,2.1c-2.3,1.3-3.9,2.8-4.8,4.6v6.9l-2.8,0.5h13.3l1.4-0.3v-5l0.9-1.6
		c0.1,0,0.2,0,0.3,0c0.9-1.9,2.6-3.7,5.1-5.1c1.5-0.8,3.1-1.6,4.9-2.1L98,74.4H86.1z"/>
	
		<linearGradient id="SVGID_2_" gradientUnits="userSpaceOnUse" x1="116.6275" y1="-40.7" x2="129.4523" y2="-40.7" gradientTransform="matrix(1 0 0 -1 0 40)">
		<stop  offset="0" style="stop-color:#CFD5F1"/>
		<stop  offset="0.2826" style="stop-color:#E1E5F6"/>
		<stop  offset="0.7193" style="stop-color:#F7F8FD"/>
		<stop  offset="1" style="stop-color:#FFFFFF"/>
	</linearGradient>
	<path class="st2" d="M122.8,71.3l-5,2.9l0,0v11.6l0,0c0,1.5-0.4,2.9-1.1,4.3c1.8-0.7,3.6-1.6,5.1-2.5c3.2-1.8,5.8-4,7.7-6.4
		c-0.9-1.4-2.3-2.7-4-3.8l2.9-1.6C126.8,74.1,124.9,72.7,122.8,71.3z"/>
	
		<linearGradient id="SVGID_3_" gradientUnits="userSpaceOnUse" x1="134.432" y1="-34.15" x2="147.7118" y2="-34.15" gradientTransform="matrix(1 0 0 -1 0 40)">
		<stop  offset="0" style="stop-color:#CFD5F1"/>
		<stop  offset="0.2826" style="stop-color:#E1E5F6"/>
		<stop  offset="0.7193" style="stop-color:#F7F8FD"/>
		<stop  offset="1" style="stop-color:#FFFFFF"/>
	</linearGradient>
	<path class="st3" d="M144.8,80.4l2.9-0.5c-1.8-3.9-5.5-7.6-10.5-10.5c-0.9-0.5-1.8-1-2.7-1.5V78h0.2v2.4H144.8z"/>
	
		<linearGradient id="SVGID_4_" gradientUnits="userSpaceOnUse" x1="101.7" y1="-75.9984" x2="142.6" y2="-75.9984" gradientTransform="matrix(1 0 0 -1 0 40)">
		<stop  offset="0" style="stop-color:#CFD5F1"/>
		<stop  offset="0.2826" style="stop-color:#E1E5F6"/>
		<stop  offset="0.7193" style="stop-color:#F7F8FD"/>
		<stop  offset="1" style="stop-color:#FFFFFF"/>
	</linearGradient>
	<path class="st4" d="M129.4,112.2v1.4c-8.2,3.4-17.7,5.5-27.7,6.1c0.7,0.1,1.5,0.1,2.2,0.1c13.8,0.6,27.6-1.6,38.7-6.3l-1.7-1.4
		L129.4,112.2L129.4,112.2z"/>
	
		<linearGradient id="SVGID_5_" gradientUnits="userSpaceOnUse" x1="142.8352" y1="-44.6" x2="167.1404" y2="-44.6" gradientTransform="matrix(1 0 0 -1 0 40)">
		<stop  offset="0" style="stop-color:#CFD5F1"/>
		<stop  offset="0.2826" style="stop-color:#E1E5F6"/>
		<stop  offset="0.7193" style="stop-color:#F7F8FD"/>
		<stop  offset="1" style="stop-color:#FFFFFF"/>
	</linearGradient>
	<path class="st5" d="M167,83.5c-1-7.6-6.4-14.7-15.3-20.4c1,2.1,1.7,4.3,2,6.6c0.1,0.8,0.2,1.7,0.2,2.6l0,0v13.5c0,0.1,0,0.3,0,0.4
		v0.4l0,0c-0.1,6.9-3.9,13.8-11.1,19.5h13.3C164.1,99.4,168.1,91.4,167,83.5z"/>
	
		<linearGradient id="SVGID_6_" gradientUnits="userSpaceOnUse" x1="36.5283" y1="-35.2" x2="58.7712" y2="-35.2" gradientTransform="matrix(1 0 0 -1 0 40)">
		<stop  offset="0" style="stop-color:#DAE0F5"/>
		<stop  offset="0.6555" style="stop-color:#E2E7F6"/>
		<stop  offset="1" style="stop-color:#E8ECF7"/>
	</linearGradient>
	<path class="st6" d="M41.7,86.5l2.7-0.7c0.8,1.1,1.8,2.1,2.9,3.1h2.5l3-0.2c-0.5-3.7,0-7.3,1.6-10.8v-5.5l0,0
		c-0.1-3.7,1.4-7.5,4.4-10.9c-1.1,0.5-2.1,1.1-3.1,1.6c-9.4,5.4-15.1,12.5-16.2,20.1v5.4l-3,0.2h5.2C41.7,88.8,41.7,86.5,41.7,86.5z
		 M54.4,72.1L54.4,72.1L54.4,72.1L54.4,72.1z"/>
	
		<linearGradient id="SVGID_7_" gradientUnits="userSpaceOnUse" x1="86.1" y1="-26.403" x2="101.7262" y2="-26.403" gradientTransform="matrix(1 0 0 -1 0 40)">
		<stop  offset="0" style="stop-color:#CFD5F1"/>
		<stop  offset="0.5533" style="stop-color:#E0E5F5"/>
		<stop  offset="1" style="stop-color:#E8ECF7"/>
	</linearGradient>
	<path class="st7" d="M86.1,64.9v3.6c4.8-2,10.1-3.3,15.6-3.8C96.5,64.1,91.2,64.2,86.1,64.9z"/>
	<path class="st0" d="M70.7,86.9h-3.5c0.4,0.3,0.8,0.5,1.2,0.7c0.8,0.5,1.7,0.9,2.7,1.4C70.8,88.4,70.7,87.7,70.7,86.9L70.7,86.9z"
		/>
	
		<linearGradient id="SVGID_8_" gradientUnits="userSpaceOnUse" x1="128.7191" y1="-62.2" x2="139.1672" y2="-62.2" gradientTransform="matrix(1 0 0 -1 0 40)">
		<stop  offset="0" style="stop-color:#CFD5F1"/>
		<stop  offset="0.2826" style="stop-color:#E1E5F6"/>
		<stop  offset="0.7193" style="stop-color:#F7F8FD"/>
		<stop  offset="1" style="stop-color:#FFFFFF"/>
	</linearGradient>
	<path class="st8" d="M129.8,98.3c-0.4,0.3-0.7,0.6-1.1,0.9l0,0l0.6,0.5v6.4c2.7-1,5.4-2.1,7.8-3.6c0.7-0.4,1.4-0.8,2-1.3
		L129.8,98.3z"/>
	<g>
		<path class="st9" d="M90.8,104.4c-12.8-0.5-24.8-3.7-34.1-8.8l10.6-6.1c16,8.6,41,8.3,56.5-0.6c2.3-1.3,4.2-2.7,5.9-4.3l13.1,4.3
			c-0.8,0.7-1.6,1.5-2.5,2.2l2.5,1c8-6.5,11.9-14.4,10.9-22.4c-1.1-8-7.1-15.6-17-21.4C113.8,35,76.5,35,53.6,48.3
			c-12.2,7-18.5,16.8-17,26.9l3-0.2c-1.4-9.5,4.5-18.7,16.2-25.5c21.7-12.5,57.1-12.5,78.9,0c9.4,5.4,15.2,12.6,16.2,20.3
			c0.8,6.1-1.5,12.2-6.3,17.5L131.5,83c1.5-1.6,2.6-3.3,3.3-5l-2.9-0.5c-1.6,3.8-5.1,7.3-9.9,10.1c-14.7,8.5-38.7,8.5-53.4,0
			c-6.9-4-10.6-9.2-11-14.5h15c0.1,1,0.5,2.1,1,3.1l2.8-0.5c-2.3-4.1-0.4-8.5,4.8-11.5c1.5-0.8,3.1-1.6,4.9-2.1l-1.4-1.6
			c-2.1,0.6-4,1.5-5.7,2.4c-3.9,2.3-6.2,5.3-6.6,8.4h-15c0.4-5.3,4-10.5,11-14.5c14.3-8.3,37.5-8.5,52.3-0.6l-10.7,6
			c-1.4-0.7-2.9-1.3-4.6-1.8L104,62c1.8,0.5,3.5,1.3,4.9,2.1c7.7,4.4,7.7,11.6,0,16.1c-5.2,3-12.9,4.1-19.9,2.7l-0.9,1.6
			c8.1,1.5,16.9,0.3,22.9-3.2c8.5-4.9,8.9-12.7,1-17.9l10.7-6.1c4.1,2.6,7.1,5.8,8.8,9.1l2.9-0.5c-1.8-3.9-5.5-7.6-10.5-10.5
			c-15.9-9.1-41.7-9.1-57.6,0c-15.5,9-15.9,23.4-1,32.6l-10.6,6.1c-4.2-2.6-7.6-5.5-10.1-8.7L42,86.2c2.9,3.7,6.9,6.9,11.8,9.8
			c10,5.8,23.1,9.2,37,9.9c13.8,0.6,27.6-1.6,38.7-6.3l-1.7-1.4C117,102.8,103.9,104.9,90.8,104.4z"/>
		<path class="st9" d="M90.8,104.4c-12.8-0.5-24.8-3.7-34.1-8.8l10.6-6.1c16,8.6,41,8.3,56.5-0.6c2.3-1.3,4.2-2.7,5.9-4.3l13.1,4.3
			c-0.8,0.7-1.6,1.5-2.5,2.2l2.5,1c8-6.5,11.9-14.4,10.9-22.4c-1.1-8-7.1-15.6-17-21.4C113.8,35,76.5,35,53.6,48.3
			c-12.2,7-18.5,16.8-17,26.9l3-0.2c-1.4-9.5,4.5-18.7,16.2-25.5c21.7-12.5,57.1-12.5,78.9,0c9.4,5.4,15.2,12.6,16.2,20.3
			c0.8,6.1-1.5,12.2-6.3,17.5L131.5,83c1.5-1.6,2.6-3.3,3.3-5l-2.9-0.5c-1.6,3.8-5.1,7.3-9.9,10.1c-14.7,8.5-38.7,8.5-53.4,0
			c-6.9-4-10.6-9.2-11-14.5h15c0.1,1,0.5,2.1,1,3.1l2.8-0.5c-2.3-4.1-0.4-8.5,4.8-11.5c1.5-0.8,3.1-1.6,4.9-2.1l-1.4-1.6
			c-2.1,0.6-4,1.5-5.7,2.4c-3.9,2.3-6.2,5.3-6.6,8.4h-15c0.4-5.3,4-10.5,11-14.5c14.3-8.3,37.5-8.5,52.3-0.6l-10.7,6
			c-1.4-0.7-2.9-1.3-4.6-1.8L104,62c1.8,0.5,3.5,1.3,4.9,2.1c7.7,4.4,7.7,11.6,0,16.1c-5.2,3-12.9,4.1-19.9,2.7l-0.9,1.6
			c8.1,1.5,16.9,0.3,22.9-3.2c8.5-4.9,8.9-12.7,1-17.9l10.7-6.1c4.1,2.6,7.1,5.8,8.8,9.1l2.9-0.5c-1.8-3.9-5.5-7.6-10.5-10.5
			c-15.9-9.1-41.7-9.1-57.6,0c-15.5,9-15.9,23.4-1,32.6l-10.6,6.1c-4.2-2.6-7.6-5.5-10.1-8.7L42,86.2c2.9,3.7,6.9,6.9,11.8,9.8
			c10,5.8,23.1,9.2,37,9.9c13.8,0.6,27.6-1.6,38.7-6.3l-1.7-1.4C117,102.8,103.9,104.9,90.8,104.4z"/>
		<path class="st10" d="M54.4,86c0,2.5,0.6,5,2,7.4l8.9-5.1c-7.1-4.5-10.8-10.1-10.9-15.8V86z"/>
		<path d="M54.4,72.2L54.4,72.2L54.4,72.2L54.4,72.2z"/>
		
			<linearGradient id="SVGID_9_" gradientUnits="userSpaceOnUse" x1="67.4" y1="-54.4862" x2="129.8042" y2="-54.4862" gradientTransform="matrix(1 0 0 -1 0 40)">
			<stop  offset="0" style="stop-color:#CED3F8"/>
			<stop  offset="1" style="stop-color:#A5ABCC"/>
		</linearGradient>
		<path class="st11" d="M123.9,88.9c-15.5,9-40.6,9.1-56.5,0.6v10.7c7.1,2.4,15.2,3.8,23.5,4.2c13.2,0.5,26.2-1.6,36.8-5.9l1.1,0.9
			c0.4-0.3,0.7-0.6,1.1-0.9v-14C128.1,86.2,126.1,87.6,123.9,88.9z"/>
		<path class="st12" d="M134.6,86.2l-4.8-1.6v13.8l10.6,3.5V91c0.9-0.7,1.7-1.5,2.5-2.2L134.6,86.2z"/>
		<polygon class="st12" points="140.4,91 140.4,101.8 140.4,104.8 142.8,105.8 142.8,92 		"/>
		<path class="st13" d="M142.8,92v13.8c7-5.7,10.9-12.5,11.1-19.5l0,0V86c0-0.1,0-0.3,0-0.4V72.3C153.8,79.3,150,86.3,142.8,92z"/>
		<path class="st12" d="M109,64.3c-1.5-0.8-3.1-1.6-4.9-2.1v2.7v2.3V76c1.8,0.5,3.5,1.3,4.9,2.1c0.6,0.4,1.2,0.7,1.7,1.1
			C116.6,74.7,116.1,68.3,109,64.3z"/>
		<path class="st12" d="M57.4,73.1C57.8,78,61,83,67.2,86.9h5.3V73.1H57.4z"/>
		<path class="st10" d="M72.5,73.1v13.8c0.1,1,0.5,2.1,1,3.1V76.2C72.9,75.2,72.6,74.2,72.5,73.1z"/>
		<polygon class="st12" points="73.5,76.2 73.5,90 76.3,89.6 76.3,82.5 76.3,75.8 		"/>
		
			<linearGradient id="SVGID_10_" gradientUnits="userSpaceOnUse" x1="75.4021" y1="-32.5" x2="86.0865" y2="-32.5" gradientTransform="matrix(1 0 0 -1 0 40)">
			<stop  offset="0" style="stop-color:#A5ABCC"/>
			<stop  offset="1" style="stop-color:#CED3F8"/>
		</linearGradient>
		<path class="st14" d="M81.2,64.3c-5.2,3-7.1,7.4-4.8,11.5v6.9c0.9-1.6,2.6-3.3,4.8-4.6c1.5-0.8,3.1-1.6,4.9-2.1v-9.1V65v-2.7
			C84.3,62.7,82.6,63.4,81.2,64.3z"/>
		
			<linearGradient id="SVGID_11_" gradientUnits="userSpaceOnUse" x1="57.421" y1="-20.9606" x2="120.721" y2="-20.9606" gradientTransform="matrix(1 0 0 -1 0 40)">
			<stop  offset="0" style="stop-color:#A5ABCC"/>
			<stop  offset="1" style="stop-color:#CED3F8"/>
		</linearGradient>
		<path class="st15" d="M68.5,56.9c-6.9,4-10.6,9.2-11,14.5h9.8c0.4-0.3,0.8-0.5,1.2-0.7c1.6-0.9,3.3-1.7,5.1-2.5
			c1.1-1.9,2.9-3.7,5.5-5.2c1.6-1,3.6-1.7,5.7-2.4l1.4,1.6v2.7c5.9-0.8,12.1-0.8,18,0v-2.7l1.4-1.6c1.6,0.5,3.2,1.1,4.6,1.8
			l10.6-6.1C105.9,48.4,82.8,48.6,68.5,56.9z"/>
		<path class="st13" d="M134.6,78.1c-0.7,1.7-1.9,3.5-3.3,5l3.3,1.1V78.1z"/>
		
			<linearGradient id="SVGID_12_" gradientUnits="userSpaceOnUse" x1="41.8" y1="-63.1984" x2="129.4603" y2="-63.1984" gradientTransform="matrix(1 0 0 -1 0 40)">
			<stop  offset="0" style="stop-color:#CED3F8"/>
			<stop  offset="1" style="stop-color:#A5ABCC"/>
		</linearGradient>
		<path class="st16" d="M90.6,106.1c-14-0.6-27.1-4.1-37-9.9c-4.9-2.8-9-6.1-11.8-9.8v13.8c2.9,3.7,6.9,6.9,11.8,9.8
			c10,5.8,23.1,9.2,37,9.9c13.8,0.6,27.6-1.6,38.7-6.3V99.8C118.2,104.5,104.5,106.8,90.6,106.1z"/>
		<path class="st13" d="M122.8,57.5l-10.7,6.1c3.7,2.5,5.6,5.5,5.6,8.5l0,0v2l5-2.9L122.8,57.5L122.8,57.5z"/>
		
			<linearGradient id="SVGID_13_" gradientUnits="userSpaceOnUse" x1="88.1568" y1="-43.1266" x2="117.7543" y2="-43.1266" gradientTransform="matrix(1 0 0 -1 0 40)">
			<stop  offset="0" style="stop-color:#A5ABCC"/>
			<stop  offset="1" style="stop-color:#CED3F8"/>
		</linearGradient>
		<path class="st17" d="M117.8,72.1c0.1,3.4-2.2,6.8-6.7,9.4c-3.5,2-7.8,3.2-12.3,3.7l-0.5,0.1h-0.5c-3.2,0.3-6.6,0.1-9.8-0.5v9
			c9.8,1,20-0.1,28.5-3.6c0.8-1.4,1.2-2.8,1.1-4.3l0,0V74.2l0,0L117.8,72.1L117.8,72.1z"/>
		<path class="st18" d="M122.8,57.5v13.8c3.7,2.3,6.4,4.9,8,7.9c0.3-0.5,0.5-0.8,0.6-1.3V66.6C130,63.3,126.9,60.1,122.8,57.5z"/>
		<path class="st13" d="M131.5,66.6v11.2c0-0.1,0.1-0.2,0.1-0.3l2.7,0.4V66.2L131.5,66.6z"/>
		<path class="st10" d="M36.3,72.6v13l0,0c0,1.1,0,2.2,0.2,3.4V75.1C36.4,74.2,36.4,73.4,36.3,72.6z"/>
		
			<linearGradient id="SVGID_14_" gradientUnits="userSpaceOnUse" x1="39.3228" y1="-21.7625" x2="150.8516" y2="-21.7625" gradientTransform="matrix(1 0 0 -1 0 40)">
			<stop  offset="0" style="stop-color:#A5ABCC"/>
			<stop  offset="1" style="stop-color:#CED3F8"/>
		</linearGradient>
		<path class="st19" d="M150.7,69.8c-1-7.7-6.8-14.9-16.2-20.3C112.8,37,77.4,37,55.7,49.5c-11.6,6.7-17.5,16-16.2,25.5v8.4
			c1.1-7.5,6.8-14.6,16.2-20.1c1-0.5,2-1.1,3.1-1.6c1.9-2.2,4.4-4.2,7.5-5.9c15.9-9.1,41.7-9.1,57.6,0c3,1.7,5.6,3.7,7.5,5.9
			c1.1,0.5,2.1,1.1,3.1,1.6c7.6,4.4,12.8,9.9,15.1,15.9C150.7,76.1,151.1,72.9,150.7,69.8z"/>
		<polygon class="st12" points="37.8,75 37.7,75 36.6,75.1 36.6,88.9 39.5,88.8 39.5,83.4 39.5,75 		"/>
		<path class="st20" d="M56.8,95.6c3.2,1.7,6.9,3.3,10.6,4.6V89.5L56.8,95.6z"/>
	</g>
	<path class="st21" d="M128.3,75.8l-5.5-18.3v13.8C124.9,72.7,126.8,74.1,128.3,75.8z"/>
	<path class="st21" d="M57.4,73.1C57.8,78,61,83,67.2,86.9h3.5L57.4,73.1z"/>
	<polygon class="st21" points="139.2,101.5 129.8,84.5 129.8,98.3 	"/>
</g>
<g>
	
		<linearGradient id="SVGID_15_" gradientUnits="userSpaceOnUse" x1="922.3557" y1="1161.3356" x2="946.1133" y2="1161.3356" gradientTransform="matrix(1 0 0 1 -779.5779 -1040)">
		<stop  offset="0" style="stop-color:#C4C9E5"/>
		<stop  offset="0.2861" style="stop-color:#D0D4EA"/>
		<stop  offset="0.807" style="stop-color:#F1F2F9"/>
		<stop  offset="1" style="stop-color:#FFFFFF"/>
	</linearGradient>
	<path class="st22" d="M156.6,117.8c-0.2-0.7-0.8-1.6-1.9-2.2c-2.8-1.6-7.1-1.5-9.8,0c-1.4,0.7-2,1.9-2,2.9v9.7h16.8
		c1.9,0,3.5-0.5,5-1.2c2.8-1.6,2.8-4.2,0-5.7c-1-0.6-2.3-0.9-3.8-1.2l-3.7-0.3L156.6,117.8z"/>
	<path class="st23" d="M160,123.4c-1.4,0.7-3.1,1.2-5,1.2h-16.8v3.6H155c1.9,0,3.5-0.5,5-1.2c1.4-0.7,2-1.9,2-2.9v-3.6
		C162.2,121.6,161.5,122.7,160,123.4z"/>
	<path class="st24" d="M152,114.5c-0.2-0.7-0.8-1.6-1.9-2.2c-2.8-1.5-7.1-1.5-9.8,0c-1.4,0.7-2,1.9-2,2.9v9.7h16.8
		c1.9,0,3.5-0.5,5-1.2c2.8-1.5,2.8-4.2,0-5.7c-1-0.6-2.3-0.9-3.8-1.2l-3.7-0.3L152,114.5z"/>
</g>
<g>
	<g>
		<path class="st23" d="M141.8,26.4c-2.2-1.4-4.3-1.4-5.8-0.6l-2.9,1.6c1.5-0.9,3.6-0.8,5.8,0.6c4.5,2.6,8.2,8.9,8.2,14.2
			c0,2.6-0.9,4.4-2.4,5.2l2.9-1.6c1.5-0.9,2.4-2.7,2.4-5.2C149.9,35.3,146.3,29,141.8,26.4z"/>
		<path class="st24" d="M138.9,28c-4.5-2.6-8.2-0.5-8.2,4.6s3.7,11.5,8.2,14.2c4.5,2.6,8.2,0.5,8.2-4.6
			C147.1,37,143.4,30.7,138.9,28z"/>
	</g>
	<path class="st25" d="M137.7,30.7c0.3-0.2,0.6-0.1,1,0.1c0.3,0.2,0.7,0.5,0.9,1c0.3,0.4,0.4,1,0.4,1.6c0,0.2-0.1,0.5-0.2,0.9
		c-0.1,0.3-0.3,1-0.5,1.7c-0.2,0.5-0.3,0.9-0.3,1.3c-0.1,0.3-0.2,1.1-0.3,2.1l-0.5-0.3c-0.2-1.5-0.3-2.5-0.3-2.8
		c-0.1-0.3-0.2-0.9-0.3-1.5c-0.2-0.9-0.3-1.5-0.4-1.8c-0.1-0.5-0.2-0.9-0.2-1C137.2,31.3,137.4,30.8,137.7,30.7z M137.7,40.7
		c0.3-0.2,0.6-0.1,1,0.1c0.4,0.3,0.7,0.6,1,1c0.3,0.5,0.4,0.9,0.4,1.4c0,0.4-0.2,0.8-0.4,0.9s-0.6,0.1-1-0.1c-0.4-0.3-0.7-0.6-1-1
		c-0.3-0.5-0.4-0.9-0.4-1.4S137.4,40.9,137.7,40.7z"/>
</g>
<g>
	<g>
		<path class="st26" d="M39.7,58.6c1.5,1.5,4.7,2.8,5.6,3.1c0.7-0.2,4-1.6,5.6-3.1C47.4,58.3,43.2,58.3,39.7,58.6z"/>
		<path class="st27" d="M39,52.3v4.5c0,0.9,0.6,1.9,1.9,2.6c2.4,1.4,6.4,1.4,8.9,0c1.3-0.7,1.9-1.7,1.9-2.6v-4.5
			C51.6,52.3,39,52.3,39,52.3z"/>
		<path class="st26" d="M52,54.6c0-0.1-0.1-0.2-0.2-0.3c0.1-0.3,0.2-0.6,0.2-0.9c0-0.2-0.2-0.3-0.4-0.3s0,0.3,0,0.3h-0.1
			c0,0.9-0.6,1.8-1.8,2.4c-2.4,1.4-6.4,1.4-8.9,0c-1.2-0.6-1.8-1.5-1.8-2.4h-0.1c0,0,0.2-0.3,0-0.3s-0.4,0.2-0.4,0.3
			c0,0.3,0,0.6,0.2,0.9c0,0-0.1,0.2-0.1,0.3c0,0.3,0,0.6,0.2,0.9c-0.1,0-0.2,0.2-0.2,0.3c0,1.1,0.7,2.1,2,2.8c2.6,1.5,6.8,1.5,9.3,0
			c1.3-0.7,2-1.8,2-2.8c0-0.1-0.1-0.2-0.2-0.3C52,55.3,52,55,52,54.6z M49.7,58.3c-2.4,1.4-6.4,1.4-8.9,0c-1.1-0.6-1.7-1.4-1.8-2.2
			c0.3,0.5,0.8,0.9,1.5,1.4c2.6,1.5,6.8,1.5,9.3,0c0.6-0.4,1.2-0.8,1.5-1.4C51.4,57,50.8,57.7,49.7,58.3z M49.7,57.1
			c-2.4,1.4-6.4,1.4-8.9,0c-1.1-0.6-1.7-1.4-1.8-2.2c0.3,0.5,0.8,0.9,1.5,1.4c2.6,1.5,6.8,1.5,9.3,0c0.6-0.4,1.2-0.8,1.5-1.4
			C51.4,55.7,50.8,56.4,49.7,57.1z"/>
	</g>
	<g>
		<path class="st24" d="M56.5,41.4c0-6.1-5-11.1-11.1-11.1s-11.1,5-11.1,11.1c0,3.2,1.3,5.9,3.4,7.9c0.8,0.8,1.1,2.4,1.1,2.8
			c0,0.9,0.6,2,1.9,2.7c2.6,1.5,6.9,1.5,9.5,0c1.3-0.7,1.9-1.8,1.9-2.7c0-0.4,0.2-1.9,1.1-2.8C55.1,47.3,56.5,44.5,56.5,41.4z"/>
		
			<linearGradient id="SVGID_16_" gradientUnits="userSpaceOnUse" x1="38.575" y1="1092.15" x2="51.9979" y2="1092.15" gradientTransform="matrix(1 0 0 1 0 -1040)">
			<stop  offset="0" style="stop-color:#FFFFFF"/>
			<stop  offset="0.3235" style="stop-color:#ECEFF9"/>
			<stop  offset="0.6624" style="stop-color:#E0E4F5"/>
			<stop  offset="1" style="stop-color:#DCE1F4"/>
		</linearGradient>
		<path class="st28" d="M40.6,49.4c2.6-1.5,6.9-1.5,9.5,0s2.6,3.9,0,5.5c-2.6,1.5-6.9,1.5-9.5,0C37.9,53.4,37.9,51,40.6,49.4z"/>
		<g class="st29">
			<path class="st30" d="M36.4,42.3c-0.5,0-0.9-0.4-0.9-0.9c0-5.4,4.4-9.8,9.8-9.8c0.5,0,0.9,0.4,0.9,0.9c0,0.5-0.4,0.9-0.9,0.9
				c-4.4,0-7.9,3.6-7.9,7.9C37.4,41.9,37,42.3,36.4,42.3z"/>
		</g>
		<path class="st25" d="M47.8,40.1c-0.1-0.1-0.3-0.1-0.4,0c-0.3,0.2-0.5,0.7-0.6,1.5c-0.1-0.3-0.2-0.5-0.4-0.6
			c-0.1-0.1-0.3-0.1-0.4,0c-0.3,0.2-0.5,0.7-0.6,1.5c-0.1-0.3-0.2-0.5-0.4-0.6c-0.1-0.1-0.3-0.1-0.4,0c-0.3,0.2-0.5,0.7-0.6,1.5
			c-0.1-0.3-0.2-0.5-0.4-0.6c-0.1-0.1-0.3-0.1-0.4,0c-0.6,0.3-0.8,2.1-0.8,3.7c0,1.6,0.4,2,0.7,2.5c0.4,0.5,0.7,0.9,0.7,3.1
			c0,0.1,0.1,0.2,0.2,0.2c0.1,0,0.2-0.1,0.2-0.2c0-2.3-0.5-2.8-0.8-3.4c-0.3-0.4-0.6-0.7-0.6-2.2c0-1.8,0.4-3.1,0.6-3.3
			c0.1,0.1,0.4,0.8,0.4,2.3c0,0.1,0.1,0.2,0.2,0.2c0.1,0,0.2-0.1,0.2-0.2c0-1.8,0.4-3.1,0.6-3.3c0.1,0.1,0.4,0.8,0.4,2.3
			c0,0.1,0.1,0.2,0.2,0.2s0.2-0.1,0.2-0.2c0-1.8,0.4-3.1,0.6-3.3c0.1,0.1,0.4,0.8,0.4,2.3c0,0.1,0.1,0.2,0.2,0.2
			c0.1,0,0.2-0.1,0.2-0.2c0-1.8,0.4-3.1,0.6-3.3c0.1,0.1,0.4,0.8,0.4,2.3s-0.3,2.2-0.6,3.2c-0.4,0.9-0.8,2-0.8,4.2
			c0,0.1,0.1,0.2,0.2,0.2c0.1,0,0.2-0.1,0.2-0.2c0-2.1,0.4-3.2,0.8-4.1c0.4-0.8,0.7-1.7,0.7-3.3C48.5,41.7,48.3,40.3,47.8,40.1z"/>
	</g>
</g>
<g>
	<path class="st23" d="M109.8,61.4c0-2-1.6-4.7-3.3-5.6L88,45.1c-0.7-0.4-1.4-0.5-1.9-0.3l0,0l0,0c-0.3,0.1-0.5,0.3-0.7,0.5
		l-2.2,1.6l1.6,1.3l0,0v11.1c0,2,1.6,4.7,3.3,5.6l5.7,3.3l3.5,6l3.5-2l4.2,2.4h-0.3l1.2,3.2l2.8-2c0.2-0.1,0.4-0.2,0.6-0.4l0,0l0,0
		c0.3-0.4,0.5-1,0.5-1.7C109.8,73.7,109.8,61.4,109.8,61.4z"/>
	<g>
		<g>
			<path class="st24" d="M85.3,47.1l18.5,10.7c1.7,1.1,3.3,3.6,3.3,5.6v12.2c0,2-1.5,2.9-3.3,1.8l-5.7-3.3l-3.6,2.1l-3.5-6l-5.7-3.3
				c-1.7-1.1-3.3-3.6-3.3-5.6V49C82.1,47,83.6,46,85.3,47.1z"/>
		</g>
	</g>
	<path class="st25" d="M97.2,64.9L94,66.7l-3.2-5.5c-0.3-0.6-0.5-1.3-0.5-1.8c0-1.3,0.8-1.7,1.8-1.2c0.4,0.2,0.8,0.6,1.2,1.1
		l0.8,1.2l0.8-0.3c0.3-0.1,0.7,0,1.2,0.2c1.1,0.6,1.8,2,1.8,3.3C97.7,64.2,97.5,64.7,97.2,64.9z"/>
</g>
<g>
	
		<linearGradient id="SVGID_17_" gradientUnits="userSpaceOnUse" x1="12.5723" y1="-59.5" x2="33.8981" y2="-59.5" gradientTransform="matrix(1 0 0 -1 0 40)">
		<stop  offset="0" style="stop-color:#D6DCEE"/>
		<stop  offset="0.5506" style="stop-color:#C4CAE5"/>
		<stop  offset="1" style="stop-color:#BBC1E1"/>
	</linearGradient>
	<path class="st31" d="M15.7,101.8c-2.1-1.2-3.2-2.9-3.2-4.4v-2c0,1.6,1.1,3.2,3.2,4.4c4.2,2.4,10.9,2.4,15.1,0
		c2.1-1.2,3.1-2.7,3.1-4.3v2c0,1.6-1.1,3.2-3.1,4.3C26.6,104.2,19.9,104.2,15.7,101.8z"/>
	<path class="st25" d="M15.7,103.9c-2.1-1.2-3.2-2.9-3.2-4.4v-2c0,1.6,1.1,3.2,3.2,4.4c4.2,2.4,10.9,2.4,15.1,0
		c2.1-1.2,3.1-2.7,3.1-4.3v2c0,1.6-1.1,3.2-3.1,4.3C26.6,106.3,19.9,106.3,15.7,103.9z"/>
	
		<linearGradient id="SVGID_18_" gradientUnits="userSpaceOnUse" x1="12.5723" y1="-63.6" x2="33.8981" y2="-63.6" gradientTransform="matrix(1 0 0 -1 0 40)">
		<stop  offset="0" style="stop-color:#D6DCEE"/>
		<stop  offset="0.5506" style="stop-color:#C4CAE5"/>
		<stop  offset="1" style="stop-color:#BBC1E1"/>
	</linearGradient>
	<path class="st32" d="M15.7,105.9c-2.1-1.2-3.2-2.9-3.2-4.4v-2c0,1.6,1.1,3.2,3.2,4.4c4.2,2.4,10.9,2.4,15.1,0
		c2.1-1.2,3.1-2.7,3.1-4.3v2c0,1.6-1.1,3.2-3.1,4.3C26.6,108.3,19.9,108.3,15.7,105.9z"/>
	<path class="st25" d="M15.7,107.9c-2.1-1.2-3.2-2.9-3.2-4.4v-2c0,1.6,1.1,3.2,3.2,4.4c4.2,2.4,10.9,2.4,15.1,0
		c2.1-1.2,3.1-2.7,3.1-4.3v2c0,1.6-1.1,3.2-3.1,4.3C26.6,110.3,19.9,110.3,15.7,107.9z"/>
	
		<linearGradient id="SVGID_19_" gradientUnits="userSpaceOnUse" x1="12.5449" y1="-67.7" x2="33.8707" y2="-67.7" gradientTransform="matrix(1 0 0 -1 0 40)">
		<stop  offset="0" style="stop-color:#D6DCEE"/>
		<stop  offset="0.5506" style="stop-color:#C4CAE5"/>
		<stop  offset="1" style="stop-color:#BBC1E1"/>
	</linearGradient>
	<path class="st33" d="M15.7,110c-2.1-1.2-3.2-2.9-3.2-4.4v-2c0,1.6,1.1,3.2,3.2,4.4c4.2,2.4,10.9,2.4,15.1,0
		c2.1-1.2,3.1-2.7,3.1-4.3v2c0,1.6-1.1,3.2-3.1,4.3C26.6,112.4,19.9,112.4,15.7,110z"/>
	<path class="st34" d="M15.7,99.8c-4.2-2.4-4.2-6.3,0-8.8c4.1-2.4,10.9-2.4,15.1,0s4.2,6.3,0,8.8C26.6,102.2,19.9,102.2,15.7,99.8z"
		/>
	<path class="st0" d="M17.8,99.1l3.7-2.1c0.8,0.4,1.9,0.6,3,0.6c2.9,0,5.4-1.4,5.4-3c0-1.8-2.5-3-5.4-3s-5.4,1.4-5.4,3
		c0,0.7,0.4,1.3,0.9,1.8l-3.7,2.1L17.8,99.1z M21.2,94.4c0-1.1,1.5-2,3.4-2s3.4,0.9,3.4,2s-1.5,2-3.4,2S21.2,95.4,21.2,94.4z"/>
</g>
<g>
	<g>
		<path class="st23" d="M78.8,29.2c0,3,1.1,5.2,2.8,6.1l3.4,1.9c-1.7-1-2.8-3.1-2.8-6.1c0-6,4.2-13.2,9.4-16.2
			c2.5-1.4,4.9-1.6,6.6-0.6l-3.4-1.9c-1.7-1-4-0.8-6.6,0.6C83,16,78.8,23.3,78.8,29.2z"/>
		<path class="st24" d="M82,31.2c0,6,4.2,8.4,9.4,5.5c5.2-3,9.4-10.2,9.4-16.2s-4.2-8.4-9.4-5.5S82,25.1,82,31.2z"/>
	</g>
	<g>
		<g class="st35">
			<g>
				<g>
					<g>
						<defs>
							<polygon id="SVGID_20_" points="87.1,33 87.1,21.1 97.2,15.2 97.3,27.1 							"/>
						</defs>
						<clipPath id="SVGID_21_">
							<use xlink:href="#SVGID_20_"  style="overflow:visible;"/>
						</clipPath>
						<g class="st36">
							<path class="st25" d="M89.7,27.3l1.3-4.8l0.1-0.1l1.4,3.1L89.7,27.3 M92.2,18.1l-0.4,0.2l-3.2,11.3c-0.2,0.8-0.5,1.4-0.6,1.8
								c-0.2,0.5-0.5,0.8-0.8,1.1V33l3-1.8v-0.5c-0.4,0.2-0.6,0.4-0.7,0.4c-0.2,0-0.5,0-0.5-0.2s0.1-0.6,0.2-1.1
								c0.1-0.2,0.2-0.7,0.4-1.6l3.4-1.9l0.4,0.8c0.1,0.2,0.1,0.4,0.2,0.5c0.1,0.2,0.1,0.4,0.1,0.6c0,0.4-0.1,0.5-0.2,0.7
								c-0.1,0.1-0.5,0.4-1,0.7v0.5l4.8-2.8v-0.5l0,0c-0.4,0.2-0.6,0.2-0.7,0c-0.2-0.1-0.5-0.7-0.8-1.4L92.2,18.1"/>
						</g>
					</g>
				</g>
			</g>
		</g>
	</g>
</g>
<g>
	
		<linearGradient id="SVGID_22_" gradientUnits="userSpaceOnUse" x1="121.7441" y1="-41.7" x2="128.7111" y2="-41.7" gradientTransform="matrix(1 0 0 -1 0 40)">
		<stop  offset="0.4265" style="stop-color:#C4C9E4"/>
		<stop  offset="0.5766" style="stop-color:#D7DAED"/>
		<stop  offset="0.8459" style="stop-color:#F4F5FA"/>
		<stop  offset="1" style="stop-color:#FFFFFF"/>
	</linearGradient>
	<path class="st37" d="M127.7,80.2c-0.7-0.4-1.7-0.6-2.7-0.6h-1.5v0.3c-0.3,0.1-0.5,0.2-0.8,0.4c-1.3,0.8-1.3,2,0,2.8
		c0.3,0.2,0.5,0.3,0.8,0.4v0.3h1.8c0.9,0,1.7-0.2,2.4-0.6C129.1,82.2,129.1,81,127.7,80.2z"/>
	<g>
		<path class="st23" d="M121.3,83.1c-0.7-0.4-1.1-0.9-1.1-1.4v-1.2c0,0.5,0.4,1.1,1.1,1.4c1.3,0.8,3.6,0.8,4.9,0
			c0.7-0.4,1-0.9,1-1.4v1.2c0,0.5-0.4,1.1-1,1.4C124.9,83.9,122.7,83.9,121.3,83.1z"/>
		<path class="st24" d="M121.3,81.9c-1.3-0.8-1.3-2,0-2.8s3.6-0.8,4.9,0s1.3,2,0,2.8C124.9,82.7,122.7,82.7,121.3,81.9z"/>
		<polygon class="st25" points="125.6,80.4 123,80.5 123.1,79.9 122.4,79.9 122.1,80.9 125.6,80.7 		"/>
	</g>
</g>
<g>
	
		<linearGradient id="SVGID_23_" gradientUnits="userSpaceOnUse" x1="44.5637" y1="-38.6" x2="52.4323" y2="-38.6" gradientTransform="matrix(1 0 0 -1 0 40)">
		<stop  offset="0.4265" style="stop-color:#C4C9E4"/>
		<stop  offset="0.5766" style="stop-color:#D7DAED"/>
		<stop  offset="0.8459" style="stop-color:#F4F5FA"/>
		<stop  offset="1" style="stop-color:#FFFFFF"/>
	</linearGradient>
	<path class="st38" d="M51.3,77c-0.8-0.5-1.9-0.7-3-0.7h-1.7v0.3c-0.3,0.1-0.6,0.2-0.9,0.4c-1.5,0.9-1.5,2.3,0,3.2
		c0.3,0.2,0.6,0.3,0.9,0.4v0.3h2c1,0,1.9-0.2,2.7-0.7C52.8,79.3,52.8,77.9,51.3,77z"/>
	<g>
		<path class="st23" d="M44.1,80.3c-0.8-0.4-1.2-1-1.2-1.6v-1.3c0,0.6,0.4,1.2,1.2,1.6c1.5,0.9,4,0.9,5.5,0c0.8-0.4,1.1-1,1.1-1.6
			v1.3c0,0.6-0.4,1.2-1.1,1.6C48.1,81.2,45.6,81.2,44.1,80.3z"/>
		<path class="st24" d="M44.1,78.9c-1.5-0.9-1.5-2.3,0-3.2s4-0.9,5.5,0s1.5,2.3,0,3.2C48.1,79.8,45.6,79.8,44.1,78.9z"/>
		<polygon class="st25" points="48.9,77.2 46,77.3 46.1,76.7 45.3,76.7 45,77.8 48.9,77.6 		"/>
	</g>
</g>
<g>
	<path class="st34" d="M74.5,90.7L72.1,92l-0.1,9.4c0,0,7,1.7,10.2,2v-8.9l2.1-1.5L74.5,90.7"/>
	<polygon class="st12" points="74.6,90.6 74.6,102.1 71.8,101.4 71.8,91.7 	"/>
</g>
<g>
	<path class="st24" d="M86.3,78.7l20.3,11.7c1,0.6,1.8,2,1.8,3.2v12.3c0,1.1-0.8,1.7-1.8,1l-11.1-6.5l-2.7,1.6v-3.2l-6.3-3.6
		c-1-0.6-1.8-2-1.8-3.2V79.9C84.5,78.6,85.3,78.2,86.3,78.7z"/>
	<g>
		<path class="st39" d="M107.8,107.2L107.8,107.2L107.8,107.2z"/>
		<path class="st23" d="M107.5,89.8L87.3,78.2c-0.6-0.3-1-0.3-1.4-0.1l0,0L85,78.6l0,0c0.3-0.2,0.8-0.1,1.2,0.1l20.3,11.7
			c1,0.6,1.8,2,1.8,3.2v12.3c0,0.6-0.2,1-0.6,1.2l1-0.6l0,0l0,0l0,0c0.3-0.2,0.6-0.6,0.6-1.1V93.1C109.4,91.9,108.5,90.4,107.5,89.8
			z"/>
	</g>
	<path class="st25" d="M95.9,88.4c0-0.3,0.2-0.5,0.5-0.2c0.2,0.1,0.5,0.5,0.5,0.8s-0.2,0.5-0.5,0.2C96.1,89,95.9,88.7,95.9,88.4z"/>
	<path class="st25" d="M93.5,87c0-0.3,0.2-0.5,0.5-0.2c0.2,0.1,0.5,0.5,0.5,0.8s-0.2,0.5-0.5,0.2C93.8,87.6,93.5,87.2,93.5,87z"/>
	<path class="st25" d="M99.3,90.3c0-0.3-0.2-0.7-0.5-0.8s-0.5,0-0.5,0.2c0,0.3,0.2,0.7,0.5,0.8C99.1,90.7,99.3,90.6,99.3,90.3z"/>
	<polygon class="st25" points="87.3,86.3 105.5,96.8 105.5,97.6 87.3,87.1 	"/>
	<polygon class="st25" points="87.3,88.6 105.5,99.1 105.5,99.9 87.3,89.4 	"/>
	<polygon class="st25" points="90,92.4 102.8,99.8 102.8,100.6 90,93.3 	"/>
</g>
</svg>
